<?xml version="1.0" encoding="utf-8"?>
<!-- Generator: Adobe Illustrator 16.0.0, SVG Export Plug-In . SVG Version: 6.00 Build 0)  -->
<!DOCTYPE svg PUBLIC "-//W3C//DTD SVG 1.1//EN" "http://www.w3.org/Graphics/SVG/1.1/DTD/svg11.dtd">
<svg version="1.1" id="Calque_1" xmlns="http://www.w3.org/2000/svg" xmlns:xlink="http://www.w3.org/1999/xlink" x="0px" y="0px"
	 width="587px" height="441px" viewBox="0 0 587 441" enable-background="new 0 0 587 441" xml:space="preserve">
<circle fill="none" stroke="#000000" stroke-width="7" stroke-miterlimit="10" cx="293.493" cy="79.673" r="62.029"/>
<path d="M293.493,166.161"/>
<polygon fill="none" stroke="#000000" stroke-width="6" stroke-linecap="round" stroke-linejoin="round" stroke-miterlimit="10" points="
	310.078,162.659 276.915,162.659 280.443,183.048 306.551,183.048 "/>
<path fill="none" stroke="#000000" stroke-width="7" stroke-linecap="round" stroke-linejoin="round" stroke-miterlimit="10" d="
	M410.803,197.018l-77.049-32.373l-22.536,52.645l-4.776-26.393h-7.889h-10.115h-8.164l-4.389,26.46l0.024,0.268l-22.671-52.979
	l-78.452,32.373l-37.601,138.142h52.105l16.896-57.107l4.417,57.107h82.891h82.894l4.424-57.107l16.889,57.107h52.112
	L410.803,197.018z M332.174,247.33l28.881-19.534l9.535,19.873L332.174,247.33z"/>
<polygon fill="#FF0031" points="157,275 140.667,332.333 187,332.667 204.5,275.25 "/>
<path fill="#FF0031" d="M207.667,275.333c0,0,1.333,0.001,1.333,2.334s3.667,54.666,3.667,54.666h161l4-54.333c0,0,0.937-3,2-3
	L207.667,275.333z"/>
<polygon fill="#FF0031" points="382.731,275 429,274.667 445.5,332 400,332.5 "/>
</svg>
