<?xml version="1.0" encoding="utf-8"?>
<!-- Generator: Adobe Illustrator 16.0.0, SVG Export Plug-In . SVG Version: 6.00 Build 0)  -->
<!DOCTYPE svg PUBLIC "-//W3C//DTD SVG 1.1//EN" "http://www.w3.org/Graphics/SVG/1.1/DTD/svg11.dtd">
<svg version="1.1" id="Calque_1" xmlns="http://www.w3.org/2000/svg" xmlns:xlink="http://www.w3.org/1999/xlink" x="0px" y="0px"
	 width="587px" height="441px" viewBox="0 0 587 441" enable-background="new 0 0 587 441" xml:space="preserve">
<g>
	<path d="M183.737,294.754c-0.162,0-0.688-0.032-0.854-0.043c-1.948-0.165-3.863-1.291-4.816-2.998
		c-0.956-1.704-1.178-3.782-0.3-5.529c6.301-12.496,9.494-25.832,9.494-39.654c0,0,0,0,0-0.007
		c-33.424-20.452-52.521-49.614-52.521-80.396c0-59.595,71.22-108.08,158.76-108.08c87.537,0,158.76,48.485,158.76,108.08
		c0,59.596-71.223,108.08-158.76,108.08c-14.934,0-29.751-1.414-44.083-4.205C231.149,285.987,207.946,294.754,183.737,294.754z
		 M293.5,69.805c-81.056,0-147.001,43.211-147.001,96.321c0,27.321,18.014,53.523,49.434,71.883
		c1.722,1.002,2.815,2.819,2.907,4.809l0.07,1.144c0.063,0.854,0.117,1.704,0.117,2.568c0,12.437-2.276,24.523-6.781,36.049
		c19.122-1.852,37.128-9.941,51.431-23.238c1.4-1.302,3.337-1.839,5.211-1.447c14.447,3.021,29.458,4.555,44.611,4.555
		c81.06,0,147.001-43.211,147.001-96.321S374.56,69.805,293.5,69.805z"/>
</g>
<path fill="#FF0031" d="M170.75,219.334c0,0,19.116,16.684,24.933,18.675c0,0,3.067,1.991,3.067,7.241c0,0-3.25,32.5-6.753,37.328
	c0,0,28.253-1.078,53.253-24.328c0,0,2.25-0.25,4.75,0.25c0,0,33,6.75,54,4c0,0,33.75-1.5,54.5-10c0,0,39.375-11.125,57.75-33.5
	L170.75,219.334z"/>
</svg>
