<?xml version="1.0" encoding="utf-8"?>
<!-- Generator: Adobe Illustrator 16.0.0, SVG Export Plug-In . SVG Version: 6.00 Build 0)  -->
<!DOCTYPE svg PUBLIC "-//W3C//DTD SVG 1.1//EN" "http://www.w3.org/Graphics/SVG/1.1/DTD/svg11.dtd">
<svg version="1.1" id="Calque_1" xmlns="http://www.w3.org/2000/svg" xmlns:xlink="http://www.w3.org/1999/xlink" x="0px" y="0px"
	 width="587px" height="441px" viewBox="0 0 587 441" enable-background="new 0 0 587 441" xml:space="preserve">
<path d="M410.33,223.244c-7.193-7.2-17.295-11.688-28.982-16.881c-11.428-5.077-24.375-10.835-35.982-20.163
	c-1.175-0.945-2.706-1.319-4.191-1.055c-1.479,0.279-2.766,1.189-3.518,2.491l-28.852,49.805l-2.597-9.215
	c3.267-2.848,5.376-6.982,5.376-11.646v-5.165c0-8.552-6.957-15.509-15.505-15.509h-5.168c-8.548,0-15.502,6.957-15.502,15.509
	v5.165c0,4.657,2.11,8.795,5.374,11.643l-2.597,9.219l-28.849-49.805c-0.755-1.302-2.042-2.212-3.524-2.491
	c-1.482-0.265-3.009,0.109-4.184,1.055c-11.611,9.328-24.559,15.083-35.982,20.163c-11.691,5.193-21.789,9.681-28.989,16.881
	c-15.989,15.993-20.706,65.039-20.963,88.732c-0.071,6.107,2.279,11.883,6.615,16.261c4.414,4.467,10.298,6.922,16.568,6.922h229.25
	c6.262,0,12.146-2.455,16.561-6.918c4.332-4.378,6.682-10.153,6.618-16.257C431.043,288.283,426.322,239.24,410.33,223.244z
	 M285.749,211.419c0-2.854,2.314-5.176,5.165-5.176h5.168c2.854,0,5.169,2.321,5.169,5.176v5.165c0,2.851-2.314,5.165-5.169,5.165
	h-5.168c-2.851,0-5.165-2.314-5.165-5.165V211.419z M285.559,249.412l4.897-17.379c0.155,0.007,0.3,0.049,0.462,0.049h5.168
	c0.158,0,0.307-0.042,0.466-0.049l4.897,17.375l0.518-0.145l-8.467,14.799l-8.46-14.799L285.559,249.412z M417.34,320.974
	c-2.455,2.483-5.723,3.849-9.211,3.849H178.875c-3.489,0-6.76-1.365-9.215-3.849c-2.375-2.402-3.662-5.557-3.627-8.88
	c0.35-31.611,7.151-70.754,17.94-81.543c5.842-5.842,15.128-9.97,25.878-14.747c0.173-0.077,0.36-0.162,0.533-0.236
	c1.602,20.861,11.163,39.577,17.993,50.518c-3.062,4.936-2.469,11.516,1.842,15.841c5.045,5.063,13.227,5.115,18.271,0.127
	c5.049-4.996,5.049-13.152,0-18.212c-3.136-3.146-7.479-4.35-11.529-3.619c-6.64-10.757-16.024-29.445-16.43-49.283
	c7.476-3.545,15.241-7.659,22.802-13.063l43.849,75.703c1.412,2.435,3.775,3.896,6.322,3.896s4.911-1.457,6.323-3.896l43.85-75.7
	c7.701,5.515,15.625,9.678,23.231,13.266c0.236,5.701-3.165,12.348-5.808,16.373c-9.553-1.224-19.09,4.336-24.512,14.617
	l-13.191,22.899c-1.658,2.876-1.947,5.956-0.829,8.888c1.351,3.56,4.544,6.078,7.427,7.74c0.74,2.063,2.37,3.785,4.621,4.522
	c3.888,1.26,8.051-0.86,9.307-4.741c1.256-3.874-0.846-8.029-4.734-9.296c-1.623-0.529-3.285-0.438-4.777,0.099
	c-1.16-0.772-1.969-1.546-2.053-2.057l13.279-23.066c2.942-5.571,8.919-11.258,16.119-8.915c7.184,2.328,8.697,10.449,7.779,16.889
	l-2.723,26.403c-0.402,0.289-1.528,0.405-2.918,0.335c-0.896-1.319-2.184-2.382-3.807-2.91c-3.889-1.249-8.051,0.864-9.301,4.737
	c-1.27,3.896,0.851,8.062,4.735,9.311c2.243,0.727,4.565,0.304,6.382-0.921c0.829,0.085,1.701,0.145,2.604,0.145
	c2.688,0,5.588-0.486,7.967-2.05c2.631-1.718,4.201-4.378,4.547-7.68l2.77-26.097c1.507-10.553-2.025-19.768-8.939-24.869
	c2.374-3.895,5.193-9.61,6.128-15.771c0.06,0.025,0.112,0.057,0.173,0.078c10.757,4.776,20.047,8.901,25.885,14.743
	c10.785,10.796,17.588,49.936,17.937,81.546C421.002,315.417,419.718,318.574,417.34,320.974z"/>
<path d="M228.133,121.381c3.027,9.292,7.5,15.551,12.658,18.091c10.362,33.062,33.001,50.67,52.708,50.67
	c19.711,0,42.35-17.605,52.705-50.666c5.161-2.544,9.639-8.802,12.665-18.092c1.761-5.404,4.868-17.417-0.147-22.61
	c1.029-12.634,2.211-36.304-12.769-53.34c-4.981-5.663-11.236-8.976-18.624-9.875c-1.281-5.955-5.218-10.838-11.378-14.014
	c-14.843-7.645-38.815-3.789-56.999,9.17c-13.724,9.775-35.446,22.346-30.503,67.91
	C223.211,103.723,226.355,115.923,228.133,121.381z M255.077,63.596c4.251-4.742,9.716-7.145,16.243-7.145
	c2.9,0,6.047,0.47,9.356,1.4c3.57,1.002,8.118,1.563,12.842,1.581c4.692-0.018,9.244-0.579,12.811-1.581
	c10.756-3.023,19.46-1.101,25.592,5.744c9.409,10.492,12.885,23.115,9.79,51.321c-4.968,45.405-31.181,65.829-48.21,65.829
	c-17.026,0-43.243-20.427-48.21-65.829C242.196,86.711,245.674,74.088,255.077,63.596z"/>
<ellipse cx="270.317" cy="118.371" rx="7.977" ry="6.904"/>
<ellipse cx="316.686" cy="118.371" rx="7.977" ry="6.904"/>
<path d="M305.908,154.639h-24.813c-1.958,0-2.586,1.274-1.203,2.66c3.902,3.913,8.583,6.202,13.611,6.202
	c5.024,0,9.709-2.286,13.612-6.202C308.498,155.913,307.869,154.639,305.908,154.639z"/>
<path d="M258.644,107.28c2.981-0.861,6.396-1.323,9.906-1.323c3.511,0,6.926,0.466,9.914,1.326c1.689,0.487,3.566-0.239,4.269-1.858
	c0.699-1.616-0.042-3.507-1.722-4.036c-3.75-1.179-8.068-1.813-12.457-1.813c-4.389,0-8.7,0.639-12.458,1.813
	c-1.679,0.529-2.424,2.424-1.722,4.036C255.069,107.043,256.95,107.77,258.644,107.28z"/>
<path d="M308.555,107.28c2.98-0.861,6.396-1.323,9.898-1.323c3.514,0,6.93,0.466,9.918,1.326c1.689,0.487,3.577-0.239,4.269-1.858
	c0.706-1.62-0.046-3.511-1.726-4.036c-3.754-1.179-8.064-1.813-12.457-1.813c-4.389,0-8.7,0.639-12.447,1.813
	c-1.689,0.529-2.427,2.424-1.725,4.036C304.977,107.043,306.86,107.766,308.555,107.28z"/>
<path d="M293.5,144.951c3.104-0.004,5.99-2.632,8.396-4.629c0.857-0.705,0.166-1.595-0.744-1.354
	c-0.906,0.236-5.271,1.464-7.652,1.464c-2.381,0-6.749-1.228-7.656-1.464c-0.91-0.24-1.602,0.649-0.745,1.354
	C287.509,142.32,290.399,144.948,293.5,144.951z"/>
<polygon fill="#FF0031" points="290.268,231.971 296.364,231.971 302,249.563 293.438,264.313 284.938,249.5 "/>
<path fill="#FF0031" d="M285.75,216h15.625c0,0,0.875,3.75-4,5.75h-7C290.375,221.75,285.625,221.625,285.75,216z"/>
<path fill="#FF0031" d="M376.979,215.73c0,0-4.526,13.771-6.128,15.771s-0.602,0-0.602,0s5.458,3.363,8.042,10.25
	c0.666,1.776,1.355,3.744,1.458,6l-2.75,34c0,0,0.059,11.102-15.096,10.301c0,0-4.987,1.283-6.237,1.283L354.333,325H409
	c0,0,8.75,0.25,12.5-10.75c0,0-2.25-44.5-7.25-57.75c0,0-3.926-18.648-11.213-25.949c0,0-2.031-2.304-5.62-4.801
	C392.349,222.223,384.432,217.913,376.979,215.73z"/>
<path fill="#FF0031" d="M334.25,272.5l-2.167-2.25l13.542-23.291l2.417-3.75c0,0,2.289-3.119,5.916-4.75
	c3.185-1.432,7.469-1.652,11.209,1.542c0,0,4.291,2.791,4.792,10.333l-0.088,2.418l-0.454,4.082l-2.604,25.041l-2.918-0.041
	c0,0-3.957-4.959-9.395-2.5c0,0-6.344,3.26-3.031,10.26c2.939,6.212-0.636-0.26-0.636-0.26l-8.666-5.167c0,0,6-8.166-3.667-12.166
	C338.5,272.001,335.993,271.411,334.25,272.5z"/>
<path fill="#FF0031" d="M329.994,281.661c0,0,3.673,8.339,12.173,2.506l9.166,5.25c0,0,1.834,3.749,5.917,3.833l-1,31.75h-73.917
	l10-47.666c0,0,3.5,0.667,5.833-2s34.897-59.348,34.897-59.348s31.301-0.176,33.394,0.014c0,0-0.458,7.835-5.291,12.001
	c0,0-8.167-3.5-19,6.833c0,0-11.501,16.334-13.167,20.667c0,0-5.667,10.248-6.625,12.499
	C322.375,268,319.154,274.322,329.994,281.661z"/>
<path fill="#FF0031" d="M221,215l32-0.333l33.542,57.75c0,0,1.958,3.583,5.896,5.021l-10.063,47.313H176.208
	c0,0-11.416-4.167-10.875-10.25c0,0,2.167-39.333,4.542-45.25h52.167l4.625,0.438c0,0-0.792,6.896,2.208,10.563
	c0,0,5,9.001,17.5,3.334c0,0,7.833-4.668,5.333-14.834c0,0-4.121-10.141-14.748-8.528c0,0-2.752-4.471-7.252-13.138
	c0,0-2.445-5.438-4.625-11.917C222.689,228.052,221,218.926,221,215z"/>
<path fill="#FF0031" d="M210.384,215.568c0,0-16.321,6.808-22.446,11.558c0,0-8,5.438-10.875,15c0,0-1.563,5.125-2.313,6.25
	l-4.875,20.875l56.75,1.375c0,0,1.128-3.83,1.751-4.54c0,0-10.71-19.877-13.46-28.502
	C214.917,237.583,209.893,217.51,210.384,215.568z"/>
<path d="M368.751,229.583l2.499,1.104c0,0-0.5,0.625-0.563,1.25s0.813,0.625,0.813,0.625l-1.438,2.875l-3.25-5.625l1.813-0.25"/>
</svg>
