<?xml version="1.0" encoding="utf-8"?>
<!-- Generator: Adobe Illustrator 16.0.0, SVG Export Plug-In . SVG Version: 6.00 Build 0)  -->
<!DOCTYPE svg PUBLIC "-//W3C//DTD SVG 1.1//EN" "http://www.w3.org/Graphics/SVG/1.1/DTD/svg11.dtd">
<svg version="1.1" id="Calque_1" xmlns="http://www.w3.org/2000/svg" xmlns:xlink="http://www.w3.org/1999/xlink" x="0px" y="0px"
	 width="587px" height="441px" viewBox="0 0 587 441" enable-background="new 0 0 587 441" xml:space="preserve">
<g>
	<g>
		<path fill="none" stroke="#000000" stroke-width="7" stroke-miterlimit="10" d="M214.431,88.954
			c0,43.671,35.401,79.068,79.072,79.068c43.666,0,79.065-35.397,79.065-79.068c0-43.668-35.399-79.07-79.065-79.07
			C249.832,9.884,214.431,45.286,214.431,88.954z"/>
	</g>
</g>
<g>
	<g>
		<g>
			<path fill="none" stroke="#000000" stroke-width="7" stroke-linecap="round" stroke-linejoin="round" stroke-miterlimit="10" d="
				M277.977,322.459h-0.706v-21.168h-29.532l26.869-75.173c-38.719-2.54-67.667-12.72-67.667-24.889c0-0.552-0.01-1.099,0.107-1.642
				c-20.77,15.513-34.207,40.444-34.207,68.492v69.901c0.706-0.114,0.968,0,1.439,0h239.876V268.08
				c0-27.605-13.487-52.192-34.084-67.753c0.035,0.3,0.021,0.6,0.021,0.901c0,12.171-28.967,22.352-67.688,24.89l26.854,75.173
				h-30.237v21.168H277.977"/>
		</g>
	</g>
</g>
<path fill="#FF0031" d="M175.667,266L257,265.667l-11.667,33.667c0,0-2,4,2,5l26.917,0.083l0.083,18.75c0,0,0.646,1.813,4.979,2.146
	l30.375,0.125c0,0,2.125-0.583,2.125-2.25S312,304.334,312,304.334h27.334c0,0,2.332-0.668,2.666-3.334l-12.333-34.666L411,266
	l0.667,69.334H175.333L175.667,266z"/>
</svg>
