<?xml version="1.0" encoding="utf-8"?>
<!-- Generator: Adobe Illustrator 16.0.0, SVG Export Plug-In . SVG Version: 6.00 Build 0)  -->
<!DOCTYPE svg PUBLIC "-//W3C//DTD SVG 1.1//EN" "http://www.w3.org/Graphics/SVG/1.1/DTD/svg11.dtd">
<svg version="1.1"
	 id="Calque_1" xmlns:cc="http://creativecommons.org/ns#" xmlns:sodipodi="http://sodipodi.sourceforge.net/DTD/sodipodi-0.dtd" xmlns:rdf="http://www.w3.org/1999/02/22-rdf-syntax-ns#" xmlns:dc="http://purl.org/dc/elements/1.1/" xmlns:svg="http://www.w3.org/2000/svg" xmlns:inkscape="http://www.inkscape.org/namespaces/inkscape"
	 xmlns="http://www.w3.org/2000/svg" xmlns:xlink="http://www.w3.org/1999/xlink" x="0px" y="0px" width="587px" height="441px"
	 viewBox="0 0 587 441" enable-background="new 0 0 587 441" xml:space="preserve">
<polygon fill="#FF0031" stroke="#000000" stroke-width="5" stroke-linecap="round" stroke-linejoin="round" stroke-miterlimit="10" points="
	357.109,335.159 229.89,335.159 229.89,309.758 357.109,309.758 "/>
<path fill="none" stroke="#000000" stroke-width="4" stroke-miterlimit="10" d="M293.5,123.127c3.533,0,6.361,3.528,6.361,7.762
	c0,2.822-1.414,5.292-3.181,6.703v26.46h-6.361v-26.46c-1.767-1.411-3.18-3.881-3.18-6.703
	C287.139,126.656,289.966,123.127,293.5,123.127z"/>
<path fill="none" stroke="#000000" stroke-width="4" stroke-linecap="round" stroke-linejoin="round" stroke-miterlimit="10" d="
	M281.485,113.249c-3.181-1.765-7.068-0.354-9.188,3.527c-1.414,2.47-1.414,5.292-0.707,7.409l-13.075,22.932v16.935h6.361v-15.17
	l12.369-21.521c2.474-0.353,4.594-1.764,6.008-4.233C285.372,119.599,284.665,115.013,281.485,113.249z"/>
<path fill="none" stroke="#000000" stroke-width="4" stroke-linecap="round" stroke-linejoin="round" stroke-miterlimit="10" d="
	M305.162,113.249c3.18-1.765,7.067-0.354,9.188,3.527c1.414,2.47,1.414,5.292,0.707,7.409l13.076,22.932v16.935h-6.361v-15.17
	l-12.369-21.521c-2.474-0.353-4.594-1.764-6.008-4.233C301.274,119.599,301.981,115.013,305.162,113.249z"/>
<line fill="none" x1="227.063" y1="142.531" x2="227.063" y2="142.531"/>
<path fill="none" stroke="#000000" stroke-width="6" stroke-miterlimit="10" d="M293.5,17.64c14.136,0,25.443,12.701,25.443,28.577
	S307.636,74.793,293.5,74.793s-25.444-12.7-25.444-28.576S279.364,17.64,293.5,17.64z"/>
<path fill="none" stroke="#000000" stroke-width="4" stroke-linecap="round" stroke-linejoin="round" stroke-miterlimit="10" d="
	M296.681,87.494l1.767,23.638c-1.061,1.764-1.767,3.881-2.12,5.998c-0.707-0.354-1.767-0.354-2.827-0.354
	c-1.06,0-1.767,0-2.827,0.354c-0.354-2.117-1.06-4.234-2.12-5.998l1.767-23.638l-3.18-6.351h6.361h6.361L296.681,87.494z"/>
<path d="M353.93,145.706c-0.354,0-0.354,0-0.707,0H353.93z"/>
<path d="M352.869,146.059c-0.354,0-0.354,0-0.707,0H352.869z"/>
<path fill="none" stroke="#000000" stroke-width="6" stroke-linecap="round" stroke-linejoin="round" stroke-miterlimit="10" d="
	M280.778,81.144l7.421,29.282c-2.474-2.822-6.008-4.586-9.542-4.233c-7.068,0.353-12.722,6.351-13.429,12.701
	c0,1.411,0,2.822,0,4.233l-9.542,16.582v-7.762l-10.602,10.584c-4.948,4.938-13.076,4.938-18.023-0.354l-35.692-35.633
	c-4.947-4.938-4.947-13.053,0-17.992s13.075-4.939,18.023,0l26.857,26.813L263.815,88.2c4.594-4.587,10.602-7.057,17.669-7.057
	H280.778z"/>
<path fill="none" stroke="#000000" stroke-width="6" stroke-linecap="round" stroke-linejoin="round" stroke-miterlimit="10" d="
	M306.223,81.144l-7.422,29.282c2.474-2.822,6.008-4.586,9.541-4.233c7.068,0.353,12.723,6.351,13.43,12.701c0,1.411,0,2.822,0,4.233
	l9.541,16.582v-7.762l10.602,10.584c4.947,4.938,13.076,4.938,18.023-0.354l35.691-35.633c4.947-4.938,4.947-13.053,0-17.992
	s-13.074-4.939-18.022,0l-26.857,26.813L323.185,88.2c-4.594-4.587-10.602-7.057-17.669-7.057H306.223z"/>
<path fill="none" stroke="#000000" stroke-width="4" stroke-linecap="round" stroke-linejoin="round" stroke-miterlimit="10" d="
	M303.041,163.699h12.723v-13.76l-9.895-16.934c-0.354,2.469-1.414,4.938-2.828,6.703v23.638V163.699z"/>
<path fill="none" stroke="#000000" stroke-width="4" stroke-linecap="round" stroke-linejoin="round" stroke-miterlimit="10" d="
	M271.236,163.699h12.722v-23.638c-1.414-1.764-2.474-4.233-2.827-6.703l-9.895,16.935v13.759V163.699z"/>
<polygon fill="none" stroke="#000000" stroke-width="6" stroke-miterlimit="10" points="331.666,201.802 344.389,201.802 
	344.389,303.407 242.612,303.407 242.612,201.802 255.334,201.802 "/>
<polygon fill="none" stroke="#000000" stroke-width="5" stroke-linecap="round" stroke-linejoin="round" stroke-miterlimit="10" points="
	357.109,195.451 229.89,195.451 229.89,170.05 357.109,170.05 "/>
<rect x="245.625" y="267.5" fill="#FF0031" width="95.75" height="32.875"/>
</svg>
